<svg id="my-svg" width="100%" xmlns="http://www.w3.org/2000/svg" xmlns:xlink="http://www.w3.org/1999/xlink" style="max-width: 1199.56px; background-color: transparent;" viewBox="-8 -8 1199.55859375 855.5" role="graphics-document document" aria-roledescription="flowchart-v2"><style>#my-svg{font-family:"trebuchet ms",verdana,arial,sans-serif;font-size:16px;fill:#000000;}#my-svg .error-icon{fill:#552222;}#my-svg .error-text{fill:#552222;stroke:#552222;}#my-svg .edge-thickness-normal{stroke-width:2px;}#my-svg .edge-thickness-thick{stroke-width:3.5px;}#my-svg .edge-pattern-solid{stroke-dasharray:0;}#my-svg .edge-pattern-dashed{stroke-dasharray:3;}#my-svg .edge-pattern-dotted{stroke-dasharray:2;}#my-svg .marker{fill:#666;stroke:#666;}#my-svg .marker.cross{stroke:#666;}#my-svg svg{font-family:"trebuchet ms",verdana,arial,sans-serif;font-size:16px;}#my-svg .label{font-family:"trebuchet ms",verdana,arial,sans-serif;color:#000000;}#my-svg .cluster-label text{fill:#333;}#my-svg .cluster-label span,#my-svg p{color:#333;}#my-svg .label text,#my-svg span,#my-svg p{fill:#000000;color:#000000;}#my-svg .node rect,#my-svg .node circle,#my-svg .node ellipse,#my-svg .node polygon,#my-svg .node path{fill:#eee;stroke:#999;stroke-width:1px;}#my-svg .flowchart-label text{text-anchor:middle;}#my-svg .node .katex path{fill:#000;stroke:#000;stroke-width:1px;}#my-svg .node .label{text-align:center;}#my-svg .node.clickable{cursor:pointer;}#my-svg .arrowheadPath{fill:#333333;}#my-svg .edgePath .path{stroke:#666;stroke-width:2.0px;}#my-svg .flowchart-link{stroke:#666;fill:none;}#my-svg .edgeLabel{background-color:white;text-align:center;}#my-svg .edgeLabel rect{opacity:0.5;background-color:white;fill:white;}#my-svg .labelBkg{background-color:rgba(255, 255, 255, 0.5);}#my-svg .cluster rect{fill:hsl(0, 0%, 98.9215686275%);stroke:#707070;stroke-width:1px;}#my-svg .cluster text{fill:#333;}#my-svg .cluster span,#my-svg p{color:#333;}#my-svg div.mermaidTooltip{position:absolute;text-align:center;max-width:200px;padding:2px;font-family:"trebuchet ms",verdana,arial,sans-serif;font-size:12px;background:hsl(-160, 0%, 93.3333333333%);border:1px solid #707070;border-radius:2px;pointer-events:none;z-index:100;}#my-svg .flowchartTitleText{text-anchor:middle;font-size:18px;fill:#000000;}#my-svg :root{--mermaid-font-family:"trebuchet ms",verdana,arial,sans-serif;}#my-svg .upstream&gt;*{fill:rgb(238, 245, 255)!important;stroke:rgb(59, 111, 179)!important;color:rgb(11, 36, 71)!important;}#my-svg .upstream span{fill:rgb(238, 245, 255)!important;stroke:rgb(59, 111, 179)!important;color:rgb(11, 36, 71)!important;}#my-svg .upstream tspan{fill:rgb(11, 36, 71)!important;}#my-svg .plugin&gt;*{fill:rgb(255, 244, 230)!important;stroke:rgb(193, 98, 10)!important;color:rgb(58, 35, 0)!important;}#my-svg .plugin span{fill:rgb(255, 244, 230)!important;stroke:rgb(193, 98, 10)!important;color:rgb(58, 35, 0)!important;}#my-svg .plugin tspan{fill:rgb(58, 35, 0)!important;}#my-svg .hot&gt;*{fill:rgb(255, 228, 225)!important;stroke:rgb(168, 50, 50)!important;color:rgb(58, 0, 0)!important;}#my-svg .hot span{fill:rgb(255, 228, 225)!important;stroke:rgb(168, 50, 50)!important;color:rgb(58, 0, 0)!important;}#my-svg .hot tspan{fill:rgb(58, 0, 0)!important;}</style><g><marker id="my-svg_flowchart-pointEnd" class="marker flowchart" viewBox="0 0 10 10" refX="6" refY="5" markerUnits="userSpaceOnUse" markerWidth="12" markerHeight="12" orient="auto"><path d="M 0 0 L 10 5 L 0 10 z" class="arrowMarkerPath" style="stroke-width: 1; stroke-dasharray: 1, 0;"/></marker><marker id="my-svg_flowchart-pointStart" class="marker flowchart" viewBox="0 0 10 10" refX="4.5" refY="5" markerUnits="userSpaceOnUse" markerWidth="12" markerHeight="12" orient="auto"><path d="M 0 5 L 10 10 L 10 0 z" class="arrowMarkerPath" style="stroke-width: 1; stroke-dasharray: 1, 0;"/></marker><marker id="my-svg_flowchart-circleEnd" class="marker flowchart" viewBox="0 0 10 10" refX="11" refY="5" markerUnits="userSpaceOnUse" markerWidth="11" markerHeight="11" orient="auto"><circle cx="5" cy="5" r="5" class="arrowMarkerPath" style="stroke-width: 1; stroke-dasharray: 1, 0;"/></marker><marker id="my-svg_flowchart-circleStart" class="marker flowchart" viewBox="0 0 10 10" refX="-1" refY="5" markerUnits="userSpaceOnUse" markerWidth="11" markerHeight="11" orient="auto"><circle cx="5" cy="5" r="5" class="arrowMarkerPath" style="stroke-width: 1; stroke-dasharray: 1, 0;"/></marker><marker id="my-svg_flowchart-crossEnd" class="marker cross flowchart" viewBox="0 0 11 11" refX="12" refY="5.2" markerUnits="userSpaceOnUse" markerWidth="11" markerHeight="11" orient="auto"><path d="M 1,1 l 9,9 M 10,1 l -9,9" class="arrowMarkerPath" style="stroke-width: 2; stroke-dasharray: 1, 0;"/></marker><marker id="my-svg_flowchart-crossStart" class="marker cross flowchart" viewBox="0 0 11 11" refX="-1" refY="5.2" markerUnits="userSpaceOnUse" markerWidth="11" markerHeight="11" orient="auto"><path d="M 1,1 l 9,9 M 10,1 l -9,9" class="arrowMarkerPath" style="stroke-width: 2; stroke-dasharray: 1, 0;"/></marker><g class="root"><g class="clusters"><g class="cluster default flowchart-label" id="spyre"><rect style="" rx="0" ry="0" x="0" y="272.5" width="1183.55859375" height="567"/><g class="cluster-label" transform="translate(450.091796875, 272.5)"><foreignObject width="283.375" height="18.5"><div xmlns="http://www.w3.org/1999/xhtml" style="display: inline-block; white-space: nowrap;"><span class="nodeLabel"><b>spyre-inference</b> (new code — this RFC)</span></div></foreignObject></g></g><g class="cluster default flowchart-label" id="vllm"><rect style="" rx="0" ry="0" x="205.416015625" y="0" width="864.130859375" height="204"/><g class="cluster-label" transform="translate(530.6494140625, 0)"><foreignObject width="213.6640625" height="18.5"><div xmlns="http://www.w3.org/1999/xhtml" style="display: inline-block; white-space: nowrap;"><span class="nodeLabel"><b>vllm</b> (upstream — unchanged)</span></div></foreignObject></g></g></g><g class="edgePaths"><path d="M715.063,55.882L750.499,62.027C785.936,68.172,856.81,80.461,892.247,92.972C927.684,105.483,927.684,118.217,927.684,124.583L927.684,130.95" id="L-OC-OCW-0" class="edge-thickness-normal edge-pattern-solid flowchart-link LS-OC LE-OCW" style="fill:none;" marker-end="url(#my-svg_flowchart-pointEnd)"/><path d="M552.055,58.076L523.203,63.855C494.352,69.634,436.65,81.192,407.799,91.796C378.947,102.4,378.947,112.05,378.947,116.875L378.947,121.7" id="L-OC-Factory-0" class="edge-thickness-normal edge-pattern-solid flowchart-link LS-OC LE-Factory" style="fill:none;" marker-end="url(#my-svg_flowchart-pointEnd)"/><path d="M316.729,331L295.526,336.708C274.322,342.417,231.915,353.833,210.711,364.367C189.508,374.9,189.508,384.55,189.508,389.375L189.508,394.2" id="L-Spec-Mgr-0" class="edge-thickness-normal edge-pattern-solid flowchart-link LS-Spec LE-Mgr" style="fill:none;" marker-end="url(#my-svg_flowchart-pointEnd)"/><path d="M441.165,331L462.369,336.708C483.572,342.417,525.98,353.833,547.183,365.908C568.387,377.983,568.387,390.717,568.387,397.083L568.387,403.45" id="L-Spec-Handlers-0" class="edge-thickness-normal edge-pattern-solid flowchart-link LS-Spec LE-Handlers" style="fill:none;" marker-end="url(#my-svg_flowchart-pointEnd)"/><path d="M568.387,442.75L568.387,448.458C568.387,454.167,568.387,465.583,576.104,475.07C583.822,484.557,599.257,492.113,606.975,495.891L614.693,499.67" id="L-Handlers-D2H-0" class="edge-thickness-normal edge-pattern-solid flowchart-link LS-Handlers LE-D2H" style="fill:none;" marker-end="url(#my-svg_flowchart-pointEnd)"/><path d="M656.16,442.75L685.633,448.458C715.106,454.167,774.052,465.583,814.072,475.155C854.091,484.726,875.185,492.451,885.731,496.314L896.278,500.177" id="L-Handlers-H2D-0" class="edge-thickness-normal edge-pattern-solid flowchart-link LS-Handlers LE-H2D" style="fill:none;" marker-end="url(#my-svg_flowchart-pointEnd)"/><path d="M673.072,554.5L673.072,558.667C673.072,562.833,673.072,571.167,681.259,579.128C689.446,587.09,705.82,594.681,714.007,598.476L722.194,602.271" id="L-D2H-Copier-0" class="edge-thickness-normal edge-pattern-solid flowchart-link LS-D2H LE-Copier" style="fill:none;" marker-end="url(#my-svg_flowchart-pointEnd)"/><path d="M972.924,554.5L972.924,558.667C972.924,562.833,972.924,571.167,964.737,579.128C956.55,587.09,940.176,594.681,931.989,598.476L923.802,602.271" id="L-H2D-Copier-0" class="edge-thickness-normal edge-pattern-solid flowchart-link LS-H2D LE-Copier" style="fill:none;" marker-end="url(#my-svg_flowchart-pointEnd)"/><path d="M822.998,693.5L822.998,697.667C822.998,701.833,822.998,710.167,822.998,717.617C822.998,725.067,822.998,731.633,822.998,734.917L822.998,738.2" id="L-Copier-Backend-0" class="edge-thickness-normal edge-pattern-solid flowchart-link LS-Copier LE-Backend" style="fill:none;" marker-end="url(#my-svg_flowchart-pointEnd)"/><path d="M378.947,179L378.947,183.167C378.947,187.333,378.947,195.667,378.947,205.542C378.947,215.417,378.947,226.833,378.947,238.25C378.947,249.667,378.947,261.083,378.947,270.075C378.947,279.067,378.947,285.633,378.947,288.917L378.947,292.2" id="L-Factory-Spec-0" class="edge-thickness-normal edge-pattern-dotted flowchart-link LS-Factory LE-Spec" style="fill:none;stroke-width:2px;stroke-dasharray:3;" marker-end="url(#my-svg_flowchart-pointEnd)"/><path d="M878.443,169.75L861.662,175.458C844.881,181.167,811.32,192.583,794.539,204C777.758,215.417,777.758,226.833,777.758,238.25C777.758,249.667,777.758,261.083,777.758,273.75C777.758,286.417,777.758,300.333,777.758,315.792C777.758,331.25,777.758,348.25,777.758,366.833C777.758,385.417,777.758,405.583,777.758,424.208C777.758,442.833,777.758,459.917,770.04,472.237C762.322,484.557,746.887,492.113,739.17,495.891L731.452,499.67" id="L-OCW-D2H-0" class="edge-thickness-normal edge-pattern-solid flowchart-link LS-OCW LE-D2H" style="fill:none;" marker-end="url(#my-svg_flowchart-pointEnd)"/><path d="M947.695,169.75L954.515,175.458C961.335,181.167,974.975,192.583,981.795,204C988.615,215.417,988.615,226.833,988.615,238.25C988.615,249.667,988.615,261.083,988.615,273.75C988.615,286.417,988.615,300.333,988.615,315.792C988.615,331.25,988.615,348.25,988.615,366.833C988.615,385.417,988.615,405.583,988.615,424.208C988.615,442.833,988.615,459.917,987.598,471.78C986.581,483.644,984.547,490.288,983.53,493.61L982.513,496.932" id="L-OCW-H2D-0" class="edge-thickness-normal edge-pattern-solid flowchart-link LS-OCW LE-H2D" style="fill:none;" marker-end="url(#my-svg_flowchart-pointEnd)"/></g><g class="edgeLabels"><g class="edgeLabel" transform="translate(927.68359375, 92.75)"><g class="label" transform="translate(-68.09375, -9.25)"><foreignObject width="136.1875" height="18.5"><div xmlns="http://www.w3.org/1999/xhtml" style="display: inline-block; white-space: nowrap;"><span class="edgeLabel">register_kv_caches</span></div></foreignObject></g></g><g class="edgeLabel" transform="translate(378.947265625, 92.75)"><g class="label" transform="translate(-92.95703125, -9.25)"><foreignObject width="185.9140625" height="18.5"><div xmlns="http://www.w3.org/1999/xhtml" style="display: inline-block; white-space: nowrap;"><span class="edgeLabel">get_handlers (via factory)</span></div></foreignObject></g></g><g class="edgeLabel"><g class="label" transform="translate(0, 0)"><foreignObject width="0" height="0"><div xmlns="http://www.w3.org/1999/xhtml" style="display: inline-block; white-space: nowrap;"><span class="edgeLabel"></span></div></foreignObject></g></g><g class="edgeLabel"><g class="label" transform="translate(0, 0)"><foreignObject width="0" height="0"><div xmlns="http://www.w3.org/1999/xhtml" style="display: inline-block; white-space: nowrap;"><span class="edgeLabel"></span></div></foreignObject></g></g><g class="edgeLabel"><g class="label" transform="translate(0, 0)"><foreignObject width="0" height="0"><div xmlns="http://www.w3.org/1999/xhtml" style="display: inline-block; white-space: nowrap;"><span class="edgeLabel"></span></div></foreignObject></g></g><g class="edgeLabel"><g class="label" transform="translate(0, 0)"><foreignObject width="0" height="0"><div xmlns="http://www.w3.org/1999/xhtml" style="display: inline-block; white-space: nowrap;"><span class="edgeLabel"></span></div></foreignObject></g></g><g class="edgeLabel"><g class="label" transform="translate(0, 0)"><foreignObject width="0" height="0"><div xmlns="http://www.w3.org/1999/xhtml" style="display: inline-block; white-space: nowrap;"><span class="edgeLabel"></span></div></foreignObject></g></g><g class="edgeLabel"><g class="label" transform="translate(0, 0)"><foreignObject width="0" height="0"><div xmlns="http://www.w3.org/1999/xhtml" style="display: inline-block; white-space: nowrap;"><span class="edgeLabel"></span></div></foreignObject></g></g><g class="edgeLabel"><g class="label" transform="translate(0, 0)"><foreignObject width="0" height="0"><div xmlns="http://www.w3.org/1999/xhtml" style="display: inline-block; white-space: nowrap;"><span class="edgeLabel"></span></div></foreignObject></g></g><g class="edgeLabel" transform="translate(378.947265625, 238.25)"><g class="label" transform="translate(-38.7578125, -9.25)"><foreignObject width="77.515625" height="18.5"><div xmlns="http://www.w3.org/1999/xhtml" style="display: inline-block; white-space: nowrap;"><span class="edgeLabel">resolves to</span></div></foreignObject></g></g><g class="edgeLabel" transform="translate(777.7578125, 365.25)"><g class="label" transform="translate(-44.734375, -9.25)"><foreignObject width="89.46875" height="18.5"><div xmlns="http://www.w3.org/1999/xhtml" style="display: inline-block; white-space: nowrap;"><span class="edgeLabel">run handlers</span></div></foreignObject></g></g><g class="edgeLabel" transform="translate(988.615234375, 365.25)"><g class="label" transform="translate(-44.734375, -9.25)"><foreignObject width="89.46875" height="18.5"><div xmlns="http://www.w3.org/1999/xhtml" style="display: inline-block; white-space: nowrap;"><span class="edgeLabel">run handlers</span></div></foreignObject></g></g></g><g class="nodes"><g class="node default plugin flowchart-label" id="flowchart-Spec-7" data-node="true" data-id="Spec" transform="translate(378.947265625, 314.25)"><rect class="basic label-container" style="" rx="0" ry="0" x="-81.13671875" y="-16.75" width="162.2734375" height="33.5"/><g class="label" style="" transform="translate(-73.63671875, -9.25)"><rect/><foreignObject width="147.2734375" height="18.5"><div xmlns="http://www.w3.org/1999/xhtml" style="display: inline-block; white-space: nowrap;"><span class="nodeLabel">SpyreOffloadingSpec</span></div></foreignObject></g></g><g class="node default plugin flowchart-label" id="flowchart-Mgr-8" data-node="true" data-id="Mgr" transform="translate(189.5078125, 425.75)"><rect class="basic label-container" style="" rx="0" ry="0" x="-154.5078125" y="-26.25" width="309.015625" height="52.5"/><g class="label" style="" transform="translate(-147.0078125, -18.75)"><rect/><foreignObject width="294.015625" height="37.5"><div xmlns="http://www.w3.org/1999/xhtml" style="display: inline-block; white-space: nowrap;"><span class="nodeLabel">get_manager() → CPUOffloadingManager<br /><i>reused verbatim from upstream</i></span></div></foreignObject></g></g><g class="node default plugin flowchart-label" id="flowchart-Handlers-9" data-node="true" data-id="Handlers" transform="translate(568.38671875, 425.75)"><rect class="basic label-container" style="" rx="0" ry="0" x="-174.37109375" y="-17" width="348.7421875" height="34"/><g class="label" style="" transform="translate(-166.87109375, -9.5)"><rect/><foreignObject width="333.7421875" height="19"><div xmlns="http://www.w3.org/1999/xhtml" style="display: inline-block; white-space: nowrap;"><span class="nodeLabel">get_handlers() → SpyreCpuOffloadingHandlers</span></div></foreignObject></g></g><g class="node default plugin flowchart-label" id="flowchart-D2H-10" data-node="true" data-id="D2H" transform="translate(673.072265625, 528.25)"><rect class="basic label-container" style="" rx="0" ry="0" x="-124.92578125" y="-26.25" width="249.8515625" height="52.5"/><g class="label" style="" transform="translate(-117.42578125, -18.75)"><rect/><foreignObject width="234.8515625" height="37.5"><div xmlns="http://www.w3.org/1999/xhtml" style="display: inline-block; white-space: nowrap;"><span class="nodeLabel">device_to_host_handler<br />(Spyre → host RAM block tensor)</span></div></foreignObject></g></g><g class="node default plugin flowchart-label" id="flowchart-H2D-11" data-node="true" data-id="H2D" transform="translate(972.923828125, 528.25)"><rect class="basic label-container" style="" rx="0" ry="0" x="-124.92578125" y="-26.25" width="249.8515625" height="52.5"/><g class="label" style="" transform="translate(-117.42578125, -18.75)"><rect/><foreignObject width="234.8515625" height="37.5"><div xmlns="http://www.w3.org/1999/xhtml" style="display: inline-block; white-space: nowrap;"><span class="nodeLabel">host_to_device_handler<br />(host RAM block tensor → Spyre)</span></div></foreignObject></g></g><g class="node default hot flowchart-label" id="flowchart-Copier-12" data-node="true" data-id="Copier" transform="translate(822.998046875, 649)"><rect class="basic label-container" style="" rx="0" ry="0" x="-183.8515625" y="-44.5" width="367.703125" height="89"/><g class="label" style="" transform="translate(-176.3515625, -37)"><rect/><foreignObject width="352.703125" height="74"><div xmlns="http://www.w3.org/1999/xhtml" style="display: inline-block; white-space: nowrap;"><span class="nodeLabel"><b>SpyreKvDmaCopier</b><br />thin wrapper around torch_spyre._C.copy_tensor<br />.copy_d2h(spyre_tensor, host_tensor)<br />.copy_h2d(host_tensor, spyre_tensor)</span></div></foreignObject></g></g><g class="node default hot flowchart-label" id="flowchart-Backend-13" data-node="true" data-id="Backend" transform="translate(822.998046875, 779)"><rect class="basic label-container" style="" rx="0" ry="0" x="-226.34375" y="-35.5" width="452.6875" height="71"/><g class="label" style="" transform="translate(-218.84375, -28)"><rect/><foreignObject width="437.6875" height="56"><div xmlns="http://www.w3.org/1999/xhtml" style="display: inline-block; white-space: nowrap;"><span class="nodeLabel"><b>torch_spyre._C.copy_tensor(src, dst, non_blocking=False)</b><br />SpyreStream.copyAsync → flex runtime DMA<br />(direction auto-detected from src.is_cpu/.is_privateuseone)</span></div></foreignObject></g></g><g class="node default upstream flowchart-label" id="flowchart-OC-0" data-node="true" data-id="OC" transform="translate(633.55859375, 41.75)"><rect class="basic label-container" style="" rx="0" ry="0" x="-81.50390625" y="-16.75" width="163.0078125" height="33.5"/><g class="label" style="" transform="translate(-74.00390625, -9.25)"><rect/><foreignObject width="148.0078125" height="18.5"><div xmlns="http://www.w3.org/1999/xhtml" style="display: inline-block; white-space: nowrap;"><span class="nodeLabel">OffloadingConnector</span></div></foreignObject></g></g><g class="node default upstream flowchart-label" id="flowchart-OCW-1" data-node="true" data-id="OCW" transform="translate(927.68359375, 153)"><rect class="basic label-container" style="" rx="0" ry="0" x="-106.86328125" y="-16.75" width="213.7265625" height="33.5"/><g class="label" style="" transform="translate(-99.36328125, -9.25)"><rect/><foreignObject width="198.7265625" height="18.5"><div xmlns="http://www.w3.org/1999/xhtml" style="display: inline-block; white-space: nowrap;"><span class="nodeLabel">OffloadingConnectorWorker</span></div></foreignObject></g></g><g class="node default upstream flowchart-label" id="flowchart-Factory-2" data-node="true" data-id="Factory" transform="translate(378.947265625, 153)"><rect class="basic label-container" style="" rx="0" ry="0" x="-138.53125" y="-26" width="277.0625" height="52"/><g class="label" style="" transform="translate(-131.03125, -18.5)"><rect/><foreignObject width="262.0625" height="37"><div xmlns="http://www.w3.org/1999/xhtml" style="display: inline-block; white-space: nowrap;"><span class="nodeLabel">OffloadingSpecFactory<br />.create_spec("SpyreOffloadingSpec")</span></div></foreignObject></g></g></g></g></g></svg>